<?xml version="1.0" standalone="no"?><svg xmlns="http://www.w3.org/2000/svg" viewBox="0 0 1440 320"><path fill="#0099ff" fill-opacity="1" d="M0,160L17.1,133.3C34.3,107,69,53,103,53.3C137.1,53,171,107,206,117.3C240,128,274,96,309,69.3C342.9,43,377,21,411,16C445.7,11,480,21,514,26.7C548.6,32,583,32,617,42.7C651.4,53,686,75,720,80C754.3,85,789,75,823,96C857.1,117,891,171,926,170.7C960,171,994,117,1029,122.7C1062.9,128,1097,192,1131,181.3C1165.7,171,1200,85,1234,64C1268.6,43,1303,85,1337,106.7C1371.4,128,1406,128,1423,128L1440,128L1440,0L1422.9,0C1405.7,0,1371,0,1337,0C1302.9,0,1269,0,1234,0C1200,0,1166,0,1131,0C1097.1,0,1063,0,1029,0C994.3,0,960,0,926,0C891.4,0,857,0,823,0C788.6,0,754,0,720,0C685.7,0,651,0,617,0C582.9,0,549,0,514,0C480,0,446,0,411,0C377.1,0,343,0,309,0C274.3,0,240,0,206,0C171.4,0,137,0,103,0C68.6,0,34,0,17,0L0,0Z" data-darkreader-inline-fill="" style="--darkreader-inline-fill:#5295c1;"></path></svg>