<?xml version="1.0" standalone="no"?><svg xmlns="http://www.w3.org/2000/svg" viewBox="0 0 1440 320"><path fill="#0099ff" fill-opacity="1" d="M0,64L21.8,90.7C43.6,117,87,171,131,170.7C174.5,171,218,117,262,106.7C305.5,96,349,128,393,138.7C436.4,149,480,139,524,112C567.3,85,611,43,655,42.7C698.2,43,742,85,785,128C829.1,171,873,213,916,208C960,203,1004,149,1047,128C1090.9,107,1135,117,1178,138.7C1221.8,160,1265,192,1309,202.7C1352.7,213,1396,203,1418,197.3L1440,192L1440,320L1418.2,320C1396.4,320,1353,320,1309,320C1265.5,320,1222,320,1178,320C1134.5,320,1091,320,1047,320C1003.6,320,960,320,916,320C872.7,320,829,320,785,320C741.8,320,698,320,655,320C610.9,320,567,320,524,320C480,320,436,320,393,320C349.1,320,305,320,262,320C218.2,320,175,320,131,320C87.3,320,44,320,22,320L0,320Z" data-darkreader-inline-fill="" style="--darkreader-inline-fill:#337cad;"></path></svg>