<?xml version="1.0" standalone="no"?><svg xmlns="http://www.w3.org/2000/svg" viewBox="0 0 1440 320"><path fill="#0099ff" fill-opacity="1" d="M0,160L17.1,133.3C34.3,107,69,53,103,53.3C137.1,53,171,107,206,117.3C240,128,274,96,309,69.3C342.9,43,377,21,411,16C445.7,11,480,21,514,26.7C548.6,32,583,32,617,42.7C651.4,53,686,75,720,80C754.3,85,789,75,823,96C857.1,117,891,171,926,170.7C960,171,994,117,1029,122.7C1062.9,128,1097,192,1131,181.3C1165.7,171,1200,85,1234,64C1268.6,43,1303,85,1337,106.7C1371.4,128,1406,128,1423,128L1440,128L1440,320L1422.9,320C1405.7,320,1371,320,1337,320C1302.9,320,1269,320,1234,320C1200,320,1166,320,1131,320C1097.1,320,1063,320,1029,320C994.3,320,960,320,926,320C891.4,320,857,320,823,320C788.6,320,754,320,720,320C685.7,320,651,320,617,320C582.9,320,549,320,514,320C480,320,446,320,411,320C377.1,320,343,320,309,320C274.3,320,240,320,206,320C171.4,320,137,320,103,320C68.6,320,34,320,17,320L0,320Z" data-darkreader-inline-fill="" style="--darkreader-inline-fill:#5295c1;"></path></svg>